<?xml version="1.0" encoding="utf-8"?>
<svg width="234px" height="34px" viewBox="0 0 234 34" version="1.1" xmlns:xlink="http://www.w3.org/1999/xlink" xmlns="http://www.w3.org/2000/svg">
  <defs>
    <filter filterUnits="userSpaceOnUse" color-interpolation-filters="sRGB" id="filter_1">
      <feFlood flood-opacity="0" result="BackgroundImageFix" />
      <feColorMatrix in="SourceAlpha" type="matrix" values="0 0 0 0 0 0 0 0 0 0 0 0 0 0 0 0 0 0 127 0" />
      <feOffset dx="0" dy="2" />
      <feGaussianBlur stdDeviation="2" />
      <feColorMatrix type="matrix" values="0 0 0 0 0.34901962 0 0 0 0 0.6784314 0 0 0 0 1 0 0 0 1 0" />
      <feBlend mode="normal" in2="BackgroundImageFix" result="effect0_dropShadow" />
      <feBlend mode="normal" in="SourceGraphic" in2="effect0_dropShadow" result="shape" />
    </filter>
  </defs>
  <g fill="#D3D3D3" stroke="#808080" stroke-width="1" id="Kenneth-Hagin-Ministries" filter="url(#filter_1)" transform="translate(6 4)">
    <path d="M116.444 6.46165Q115.843 6.46165 115.408 6.05575Q114.974 5.64986 114.974 5.08097Q114.974 4.51207 115.408 4.10937Q115.843 3.70668 116.444 3.70667Q117.051 3.70668 117.486 4.10937Q117.92 4.51207 117.92 5.08097Q117.92 5.64986 117.486 6.05575Q117.051 6.46165 116.444 6.46165ZM152.137 6.05575Q152.572 6.46165 153.173 6.46165Q153.78 6.46165 154.214 6.05575Q154.649 5.64986 154.649 5.08097Q154.649 4.51207 154.214 4.10937Q153.78 3.70668 153.173 3.70667Q152.572 3.70668 152.137 4.10937Q151.702 4.51207 151.702 5.08097Q151.702 5.64986 152.137 6.05575ZM168.226 6.05575Q168.661 6.46165 169.261 6.46165Q169.869 6.46165 170.303 6.05575Q170.738 5.64986 170.738 5.08097Q170.738 4.51207 170.303 4.10937Q169.869 3.70668 169.261 3.70667Q168.661 3.70668 168.226 4.10937Q167.791 4.51207 167.791 5.08097Q167.791 5.64986 168.226 6.05575ZM197.585 6.05575Q198.019 6.46165 198.62 6.46165Q199.227 6.46165 199.662 6.05575Q200.097 5.64986 200.097 5.08097Q200.097 4.51207 199.662 4.10937Q199.227 3.70668 198.62 3.70667Q198.019 3.70668 197.585 4.10937Q197.15 4.51207 197.15 5.08097Q197.15 5.64986 197.585 6.05575ZM1.13778 4.45454L1.13778 17.5455L3.90554 17.5455L3.90554 13.8253L5.26705 12.1634L8.85298 17.5455L12.1641 17.5455L7.24858 10.3161L12.1065 4.45454L8.78906 4.45454L4.07813 10.2266L3.90554 10.2266L3.90554 4.45454L1.13778 4.45454ZM67.1165 11.8693L67.1165 17.5455L64.3935 17.5455L64.3935 4.45454L67.0398 4.45454L67.0398 9.45952L67.1548 9.45952Q67.4936 8.5902 68.2319 8.09482Q68.9702 7.59943 70.0888 7.59943Q71.6229 7.59943 72.5561 8.58381Q73.4893 9.56818 73.483 11.294L73.483 17.5455L70.7599 17.5455L70.7599 11.7798Q70.7663 10.8722 70.3029 10.3672Q69.8395 9.86222 69.0085 9.86222Q68.1776 9.86222 67.6502 10.3896Q67.1229 10.9169 67.1165 11.8693ZM79.8558 4.45454L79.8558 17.5455L82.6236 17.5455L82.6236 12.1378L88.2422 12.1378L88.2422 17.5455L91.0035 17.5455L91.0035 4.45454L88.2422 4.45454L88.2422 9.85582L82.6236 9.85582L82.6236 4.45454L79.8558 4.45454ZM135.39 4.45454L138.803 4.45454L142.408 13.25L142.562 13.25L146.167 4.45454L149.58 4.45454L149.58 17.5455L146.896 17.5455L146.896 9.02486L146.787 9.02486L143.399 17.4815L141.571 17.4815L138.183 8.9929L138.075 8.9929L138.075 17.5455L135.39 17.5455L135.39 4.45454ZM62.6229 9.77273L62.6229 7.72727L60.7756 7.72727L60.7756 5.375L58.0526 5.375L58.0526 7.72727L56.7102 7.72727L56.7102 9.77273L58.0526 9.77273L58.0526 14.8864Q58.0462 16.331 58.9442 17.0373Q59.8423 17.7436 61.3253 17.6797Q61.8558 17.6605 62.2266 17.5742Q62.5973 17.4879 62.8018 17.424L62.3736 15.3977Q62.2713 15.4169 62.0795 15.4521Q61.8878 15.4872 61.696 15.4872Q61.2869 15.4872 61.0313 15.2891Q60.7756 15.0909 60.7756 14.5284L60.7756 9.77273L62.6229 9.77273ZM188.124 9.77273L188.124 7.72727L186.277 7.72727L186.277 5.375L183.554 5.375L183.554 7.72727L182.212 7.72727L182.212 9.77273L183.554 9.77273L183.554 14.8864Q183.548 16.331 184.446 17.0373Q185.344 17.7436 186.827 17.6797Q187.357 17.6605 187.728 17.5742Q188.099 17.4879 188.303 17.424L187.875 15.3977Q187.773 15.4169 187.581 15.4521Q187.389 15.4872 187.197 15.4872Q186.788 15.4872 186.533 15.2891Q186.277 15.0909 186.277 14.5284L186.277 9.77273L188.124 9.77273ZM189.895 17.5455L189.895 7.72727L192.535 7.72727L192.535 9.44034L192.637 9.44034Q192.906 8.52628 193.538 8.05646Q194.171 7.58665 194.996 7.58665Q195.45 7.58665 195.852 7.68253L195.852 10.0987Q195.661 10.0348 195.322 9.99325Q194.983 9.9517 194.702 9.9517Q193.8 9.9517 193.209 10.5174Q192.618 11.0831 192.618 11.9908L192.618 17.5455L189.895 17.5455ZM15.3729 17.1204Q16.4659 17.7372 17.9744 17.7372Q19.7962 17.7372 20.9659 16.919Q22.1357 16.1009 22.4233 14.733L19.9048 14.5668Q19.7003 15.1293 19.2017 15.4169Q18.7031 15.7045 18.0192 15.7045Q16.9964 15.7045 16.3956 15.0717Q15.7947 14.4389 15.7947 13.3395L15.7947 13.3331L22.4808 13.3331L22.4808 12.5852Q22.4808 10.9169 21.8672 9.80788Q21.2536 8.69886 20.2085 8.14915Q19.1634 7.59943 17.8658 7.59943Q16.4212 7.59943 15.3505 8.23864Q14.2798 8.87784 13.6918 10.022Q13.1037 11.1662 13.1037 12.6811Q13.1037 14.2344 13.6918 15.369Q14.2798 16.5036 15.3729 17.1204ZM26.9808 11.8693L26.9808 17.5455L24.2578 17.5455L24.2578 7.72727L26.853 7.72727L26.853 9.45952L26.968 9.45952Q27.3004 8.60298 28.0643 8.10121Q28.8281 7.59943 29.9212 7.59943Q31.4553 7.59943 32.3821 8.587Q33.3089 9.57457 33.309 11.294L33.309 17.5455L30.5859 17.5455L30.5859 11.7798Q30.5923 10.8786 30.1257 10.3704Q29.6591 9.86222 28.8409 9.86222Q28.0163 9.86222 27.5018 10.3896Q26.9872 10.9169 26.9808 11.8693ZM38.1733 17.5455L38.1733 11.8693Q38.1797 10.9169 38.6942 10.3896Q39.2088 9.86222 40.0334 9.86222Q40.8516 9.86222 41.3182 10.3704Q41.7848 10.8786 41.7784 11.7798L41.7784 17.5455L44.5014 17.5455L44.5014 11.294Q44.5014 9.57457 43.5746 8.587Q42.6477 7.59943 41.1136 7.59943Q40.0206 7.59943 39.2567 8.10121Q38.4929 8.60298 38.1605 9.45952L38.0455 9.45952L38.0455 7.72727L35.4503 7.72727L35.4503 17.5455L38.1733 17.5455ZM51.1172 17.7372Q49.6087 17.7372 48.5156 17.1204Q47.4226 16.5036 46.8345 15.369Q46.2464 14.2344 46.2464 12.6811Q46.2464 11.1662 46.8345 10.022Q47.4226 8.87784 48.4933 8.23864Q49.5639 7.59943 51.0085 7.59943Q52.3061 7.59943 53.3512 8.14915Q54.3963 8.69886 55.0099 9.80788Q55.6236 10.9169 55.6236 12.5852L55.6236 13.3331L48.9375 13.3331L48.9375 13.3395Q48.9375 14.4389 49.5383 15.0717Q50.1392 15.7045 51.1619 15.7045Q51.8459 15.7045 52.3445 15.4169Q52.843 15.1293 53.0476 14.5668L55.5661 14.733Q55.2784 16.1009 54.1087 16.919Q52.9389 17.7372 51.1172 17.7372ZM96.0341 17.7308Q94.6278 17.7308 93.701 16.9957Q92.7741 16.2607 92.7741 14.8033Q92.7741 13.7038 93.2919 13.0774Q93.8097 12.451 94.6502 12.1602Q95.4908 11.8693 96.4623 11.7798Q97.7408 11.652 98.2905 11.5114Q98.8402 11.3707 98.8402 10.8977L98.8402 10.8594Q98.8402 10.2521 98.4599 9.91974Q98.0795 9.58736 97.3828 9.58736Q96.6477 9.58736 96.2131 9.90696Q95.7784 10.2266 95.6378 10.7187L93.1193 10.5142Q93.4006 9.17187 94.516 8.38565Q95.6314 7.59943 97.3956 7.59943Q98.4886 7.59943 99.441 7.9446Q100.393 8.28977 100.978 9.02166Q101.563 9.75355 101.563 10.9233L101.563 17.5455L98.9808 17.5455L98.9808 16.1839L98.9041 16.1839Q98.5462 16.8679 97.8334 17.2994Q97.1207 17.7308 96.0341 17.7308ZM104.989 20.6424Q106.121 21.4318 108.102 21.4318Q109.509 21.4318 110.589 21.0067Q111.669 20.5817 112.286 19.7379Q112.903 18.8942 112.903 17.6413L112.903 7.72727L110.199 7.72727L110.199 9.37642L110.097 9.37642Q109.918 8.97372 109.572 8.56463Q109.227 8.15554 108.671 7.87749Q108.115 7.59943 107.29 7.59943Q106.217 7.59943 105.312 8.15874Q104.408 8.71804 103.861 9.83025Q103.315 10.9425 103.315 12.6172Q103.315 14.2472 103.848 15.3082Q104.382 16.3693 105.287 16.8871Q106.191 17.4048 107.297 17.4048Q108.473 17.4048 109.151 16.9094Q109.828 16.4141 110.097 15.8068L110.212 15.8068L110.212 17.603Q110.212 18.6129 109.633 19.0444Q109.055 19.4759 108.166 19.4759Q107.265 19.4759 106.782 19.1403Q106.3 18.8047 106.134 18.3572L103.615 18.696Q103.858 19.853 104.989 20.6424ZM122.695 17.5455L122.695 11.8693Q122.702 10.9169 123.216 10.3896Q123.731 9.86222 124.555 9.86222Q125.374 9.86222 125.84 10.3704Q126.307 10.8786 126.3 11.7798L126.3 17.5455L129.023 17.5455L129.023 11.294Q129.023 9.57457 128.097 8.587Q127.17 7.59943 125.636 7.59943Q124.543 7.59943 123.779 8.10121Q123.015 8.60298 122.683 9.45952L122.567 9.45952L122.567 7.72727L119.972 7.72727L119.972 17.5455L122.695 17.5455ZM159.424 11.8693L159.424 17.5455L156.701 17.5455L156.701 7.72727L159.296 7.72727L159.296 9.45952L159.411 9.45952Q159.744 8.60298 160.507 8.10121Q161.271 7.59943 162.364 7.59943Q163.898 7.59943 164.825 8.587Q165.752 9.57457 165.752 11.294L165.752 17.5455L163.029 17.5455L163.029 11.7798Q163.036 10.8786 162.569 10.3704Q162.102 9.86222 161.284 9.86222Q160.46 9.86222 159.945 10.3896Q159.43 10.9169 159.424 11.8693ZM180.959 10.527L178.466 10.6804Q178.364 10.2074 177.948 9.86861Q177.533 9.52983 176.823 9.52983Q176.19 9.52983 175.752 9.7951Q175.315 10.0604 175.321 10.5014Q175.315 10.853 175.599 11.0959Q175.884 11.3388 176.567 11.4858L178.344 11.8437Q181.176 12.4254 181.183 14.5028Q181.183 15.468 180.617 16.1967Q180.051 16.9254 179.067 17.3313Q178.082 17.7372 176.81 17.7372Q174.861 17.7372 173.704 16.9222Q172.547 16.1072 172.355 14.701L175.033 14.5604Q175.161 15.1612 175.625 15.468Q176.088 15.7749 176.817 15.7749Q177.533 15.7749 177.971 15.4936Q178.408 15.2124 178.415 14.7777Q178.396 14.049 177.156 13.7997L175.455 13.4609Q172.604 12.892 172.617 10.6548Q172.611 9.2358 173.752 8.41761Q174.893 7.59943 176.778 7.59943Q178.638 7.59943 179.709 8.38565Q180.78 9.17187 180.959 10.527ZM206.623 17.7372Q205.114 17.7372 204.021 17.1204Q202.928 16.5036 202.34 15.369Q201.752 14.2344 201.752 12.6811Q201.752 11.1662 202.34 10.022Q202.928 8.87784 203.999 8.23864Q205.07 7.59943 206.514 7.59943Q207.812 7.59943 208.857 8.14915Q209.902 8.69886 210.516 9.80788Q211.129 10.9169 211.129 12.5852L211.129 13.3331L204.443 13.3331L204.443 13.3395Q204.443 14.4389 205.044 15.0717Q205.645 15.7045 206.668 15.7045Q207.352 15.7045 207.85 15.4169Q208.349 15.1293 208.553 14.5668L211.072 14.733Q210.784 16.1009 209.614 16.919Q208.445 17.7372 206.623 17.7372ZM218.582 10.6804L221.075 10.527Q220.896 9.17187 219.826 8.38565Q218.755 7.59943 216.895 7.59943Q215.009 7.59943 213.868 8.41761Q212.727 9.2358 212.734 10.6548Q212.721 12.892 215.572 13.4609L217.272 13.7997Q218.512 14.049 218.531 14.7777Q218.525 15.2124 218.087 15.4936Q217.649 15.7749 216.933 15.7749Q216.205 15.7749 215.741 15.468Q215.278 15.1612 215.15 14.5604L212.472 14.701Q212.663 16.1072 213.82 16.9222Q214.977 17.7372 216.927 17.7372Q218.199 17.7372 219.183 17.3313Q220.168 16.9254 220.733 16.1967Q221.299 15.468 221.299 14.5028Q221.293 12.4254 218.461 11.8437L216.684 11.4858Q216 11.3388 215.716 11.0959Q215.431 10.853 215.438 10.5014Q215.431 10.0604 215.869 9.7951Q216.307 9.52983 216.94 9.52983Q217.649 9.52983 218.065 9.86861Q218.48 10.2074 218.582 10.6804ZM115.076 17.5455L115.076 7.72727L117.799 7.72727L117.799 17.5455L115.076 17.5455ZM151.805 7.72727L151.805 17.5455L154.528 17.5455L154.528 7.72727L151.805 7.72727ZM167.893 7.72727L167.893 17.5455L170.616 17.5455L170.616 7.72727L167.893 7.72727ZM197.252 7.72727L197.252 17.5455L199.975 17.5455L199.975 7.72727L197.252 7.72727ZM19.9176 11.6456L15.7947 11.6456Q15.8395 10.8082 16.4212 10.2202Q17.0028 9.6321 17.9105 9.6321Q18.799 9.6321 19.3551 10.201Q19.9112 10.7699 19.9176 11.6456ZM48.9375 11.6456L53.0604 11.6456Q53.054 10.7699 52.4979 10.201Q51.9418 9.6321 51.0533 9.6321Q50.1456 9.6321 49.5639 10.2202Q48.9822 10.8082 48.9375 11.6456ZM204.443 11.6456L208.566 11.6456Q208.56 10.7699 208.004 10.201Q207.447 9.6321 206.559 9.6321Q205.651 9.6321 205.07 10.2202Q204.488 10.8082 204.443 11.6456ZM109.684 14.6307Q109.144 15.3594 108.16 15.3594Q107.156 15.3594 106.626 14.6179Q106.095 13.8764 106.095 12.6044Q106.095 11.3516 106.623 10.5589Q107.15 9.76633 108.16 9.76633Q109.151 9.76633 109.687 10.5398Q110.224 11.3132 110.224 12.6044Q110.224 13.902 109.684 14.6307ZM96.8139 15.8516Q97.7088 15.8516 98.2841 15.3306Q98.8594 14.8097 98.8594 14.0362L98.8594 12.9943Q98.6996 13.103 98.364 13.1861Q98.0284 13.2692 97.6481 13.3299Q97.2677 13.3906 96.9673 13.4354Q96.2514 13.5376 95.8136 13.8381Q95.3757 14.1385 95.3757 14.7138Q95.3757 15.2763 95.7816 15.5639Q96.1875 15.8516 96.8139 15.8516Z" />
  </g>
</svg>